<svg width="31" height="35" viewBox="0 0 31 35" fill="none" xmlns="http://www.w3.org/2000/svg">
<path d="M18.4327 10.917C18.359 10.7224 18.1697 10.5976 17.9618 10.6043C15.6827 10.6784 13.0243 11.236 10.0187 12.6015C9.02216 13.0562 8.08439 13.5669 7.21253 14.1266C7.01794 14.2516 6.93609 14.4944 7.01758 14.7108C7.34504 15.5805 7.76575 16.4441 8.2763 17.2727C8.37738 17.4367 8.59583 17.4782 8.7554 17.3702C9.5853 16.8084 10.4988 16.2966 11.4909 15.8445C13.6436 14.8666 16.2539 14.1681 18.7987 14.199C19.0045 14.2015 19.1707 14.0267 19.1452 13.8224C19.0131 12.7617 18.7644 11.7914 18.4327 10.917Z" fill="#0E006B" style="fill:#0E006B;fill:color(display-p3 0.0549 0.0000 0.4196);fill-opacity:1;"/>
<path d="M27.4377 13.6192C27.0946 13.3329 26.558 12.9261 25.8294 12.5016C25.5876 12.3607 25.2982 12.5694 25.3362 12.8467C25.4924 13.9892 25.5549 15.1648 25.5189 16.3639C25.513 16.5598 25.5904 16.7486 25.7263 16.8898C26.6671 17.8665 27.2318 19.0167 27.3359 20.1492C27.3834 20.6139 27.3529 21.0787 27.2375 21.5264C27.1256 21.964 26.9051 22.3779 26.5794 22.7578C26.0461 23.3903 25.2323 23.9265 24.1974 24.3223C24.0099 24.394 23.8586 24.5386 23.7838 24.7249C23.3095 25.9063 22.7621 26.9633 22.1722 27.9049C22.0185 28.1504 22.2131 28.4695 22.4995 28.4259C23.0131 28.3478 23.508 28.248 23.9776 28.1277C26.9662 27.3543 29.1677 25.7701 30.2125 23.6839C30.416 23.2768 30.5755 22.8528 30.6908 22.4084C30.8027 21.9641 30.874 21.5129 30.9045 21.0617C31.0843 18.3785 29.8258 15.624 27.4377 13.6192Z" fill="#0E006B" style="fill:#0E006B;fill:color(display-p3 0.0549 0.0000 0.4196);fill-opacity:1;"/>
<path d="M22.8548 23.3345C23.4111 21.7571 23.8318 19.9593 24.0523 17.907C24.076 17.6899 24.0964 17.4762 24.1133 17.2591C24.154 16.7163 24.1744 16.1769 24.171 15.6444C24.171 14.2196 24.0115 12.8322 23.7198 11.5093C23.5977 10.9733 23.4552 10.4475 23.2924 9.9353C22.2374 6.65164 20.2666 3.87002 17.563 2.03484C14.4761 -0.0615422 10.8634 -0.553417 7.66113 0.630462C7.24049 0.786504 6.82325 0.969684 6.41958 1.18339C6.01251 1.3971 5.6292 1.63795 5.26623 1.90933C3.26822 3.37137 1.94526 5.61361 1.48731 8.34433C1.0565 10.9292 1.39912 13.7278 2.40321 16.4212C2.57621 16.8893 2.77297 17.3574 2.99007 17.8188C3.52264 18.9687 4.18073 20.0847 4.95076 21.1465C5.22892 21.5366 5.52743 21.9165 5.83951 22.2897C6.09393 22.595 6.35852 22.8935 6.63329 23.1852C8.65788 25.3398 11.1339 26.7752 13.6915 27.6257C13.9019 27.6957 14.1335 27.6544 14.3043 27.513C15.0092 26.9293 15.7586 26.1619 16.4573 25.1655C16.5946 24.9697 16.4818 24.701 16.2489 24.6466C13.6846 24.0469 11.1459 22.7882 9.22832 20.7462C8.85518 20.3494 8.50579 19.9389 8.17335 19.5115C7.89519 19.1519 7.63399 18.7822 7.38975 18.4056C6.71131 17.3676 6.15838 16.2719 5.74453 15.1627C5.57492 14.7081 5.42906 14.2502 5.30694 13.7922C4.86595 12.1233 4.74383 10.4577 4.99825 8.93118C5.19839 7.7473 5.70383 6.2378 6.95555 5.11159C7.27781 4.82325 7.64756 4.55865 8.07837 4.33137C8.48883 4.11766 8.90946 3.94466 9.34027 3.82254C11.362 3.2289 13.567 3.6258 15.5616 4.98269C16.8981 5.8918 18.2278 7.33008 19.1844 9.25346C19.4049 9.69105 19.6017 10.1558 19.7781 10.6443C20.1784 11.7501 20.4565 12.9849 20.5651 14.3418C20.599 14.7895 20.616 15.2509 20.616 15.7224C20.616 16.3024 20.5786 16.9063 20.5108 17.5237C20.2462 20.0034 19.6424 22.0251 18.8724 23.6737C18.6586 24.1351 18.4314 24.5693 18.1939 24.9729C17.4001 26.323 16.4978 27.3644 15.626 28.1582C15.1613 28.5856 14.7067 28.9384 14.2793 29.2302C13.4109 29.8306 12.6578 30.1834 12.1965 30.3665C10.2697 31.14 8.33278 31.1976 6.84021 30.5802C6.40601 30.4039 6.00912 30.1664 5.66311 29.8713C5.30693 29.5694 4.99147 29.2369 4.72687 28.8807C3.80759 27.6629 3.43105 26.1534 3.65833 24.5218C3.74026 23.9219 3.90042 23.3297 4.13012 22.7472C4.19814 22.5747 4.17442 22.3786 4.06314 22.2303C3.42115 21.3746 2.84814 20.4807 2.35059 19.5597C2.227 19.331 1.90313 19.3126 1.76831 19.535C0.905213 20.9583 0.346238 22.474 0.130431 24.0333C-0.263065 26.8827 0.554458 29.5863 2.38964 31.642C2.68815 31.9744 3.01381 32.2933 3.3666 32.5918C3.71599 32.8869 4.08574 33.1481 4.47584 33.3788C5.82255 34.1726 7.39653 34.5763 9.06889 34.5763C10.5038 34.5763 12.0133 34.2777 13.5229 33.6739C14.5609 33.2567 16.7454 32.1916 18.8724 29.9595C19.2591 29.5558 19.6458 29.108 20.0223 28.6195C20.8331 27.5714 21.6031 26.3264 22.2544 24.8576C22.4681 24.3759 22.6716 23.8671 22.8548 23.3345Z" fill="#0E006B" style="fill:#0E006B;fill:color(display-p3 0.0549 0.0000 0.4196);fill-opacity:1;"/>
</svg>
